<svg xmlns="http://www.w3.org/2000/svg" enable-background="new 0 0 47.5 47.5" viewBox="0 0 47.5 47.5"><defs><clipPath id="a"><path d="M0 38h38V0H0v38Z"/></clipPath><clipPath id="b"><path d="M11.075 35.324 2.59 26.839c-1.561-1.562-1.561-2.681 0-4.243L21.682 3.504a4 4 0 0 1 5.657 0l7.072 7.071a4.002 4.002 0 0 1 0 5.657L15.318 35.324c-.781.781-1.451 1.172-2.122 1.172-.67 0-1.34-.391-2.121-1.172"/></clipPath><clipPath id="c"><path d="M0 38h38V0H0v38Z"/></clipPath><clipPath id="d"><path d="m20.268 26.132-8.485-8.486a3.999 3.999 0 0 1 0-5.657l9.899-9.899a4 4 0 0 1 5.657 0l8.485 8.485a4 4 0 0 1 0 5.657l-9.9 9.9a3.985 3.985 0 0 1-2.828 1.171 3.987 3.987 0 0 1-2.828-1.171"/></clipPath><clipPath id="e"><path d="M0 38h38V0H0v38Z"/></clipPath></defs><g clip-path="url(#a)" transform="matrix(1.25 0 0 -1.25 0 47.5)"><path fill="#c1694f" d="M0 0a4 4 0 0 0-5.657 0l-19.092 19.092c-1.562 1.562-1.562 2.681 0 4.243l8.485 8.485c1.562 1.562 2.681 1.562 4.243 0L7.071 12.729a4.002 4.002 0 0 0 0-5.658L0 0Z" transform="translate(27.339 3.504)"/></g><g clip-path="url(#b)" transform="matrix(1.25 0 0 -1.25 0 47.5)"><path fill="#8a4b38" d="m0 0-20.299 20.299 5.863 5.864-1.414 1.414-5.863-5.864-4.451 4.45-1.414-1.414 4.451-4.45-7.572-7.571 1.414-1.415 7.572 7.572L-1.414-1.414 0 0Z" transform="translate(32.996 6.333)"/></g><g clip-path="url(#c)" transform="matrix(1.25 0 0 -1.25 0 47.5)"><path fill="#dd2e44" d="M0 0a4 4 0 0 0-5.657 0l-9.899 9.899a4.002 4.002 0 0 0 0 5.658l8.485 8.485a4 4 0 0 0 5.657 0l9.899-9.899a4.002 4.002 0 0 0 0-5.658L0 0Z" transform="translate(27.339 2.09)"/></g><g clip-path="url(#d)" transform="matrix(1.25 0 0 -1.25 0 47.5)"><path fill="#be1931" d="m0 0-9-23-6 3L-2 1l2-1z" transform="translate(27 27)"/></g><g clip-path="url(#e)" transform="matrix(1.25 0 0 -1.25 0 47.5)"><path fill="#ccd6dd" d="m0 0 2.121-2.121c-.707-2.122-8.485-15.557-9.9-18.385 0 0-.707-2.121-2.474-.353l-5.304 5.303c-.679.679-.685 2.143 0 2.828L-2.829 0C-1.415 1.415 0 0 0 0" transform="translate(23.804 28.253)"/></g></svg>