<svg xmlns="http://www.w3.org/2000/svg" viewBox="0 0 47.5 47.5"><defs><clipPath id="a"><path d="M0 38h38V0H0v38Z"/></clipPath></defs><g clip-path="url(#a)" transform="matrix(1.25 0 0 -1.25 0 47.5)"><path fill="#5c913b" d="M19.241 27.367c-.277 3.307 2.17 4.72 2.17 4.72-3.199-.113-4.894-2.825-4.894-2.825-.752 1.299.946 4.012 2.169 4.719-3.198-.113-3.67-2.12-3.67-2.12-1.503 2.601-1.029 4.608-1.029 4.608-1.121-.648-1.767-2.113-2.142-3.513l-2.318 2.671c-.23-1.046.156-3.176.572-4.962-3.054 1.791-5.902.151-5.902.151 3.95-1.187 5.45-3.787 5.45-3.787s-3.948 1.187-5.645-1.527c2.596.092 4.5-.499 5.856-1.229-1.163-.289-3.145.236-4.355-1.371 0 0 3.198.113 3.851-1.055-2.172-.614-3.574-2.251-3.574-2.251 4.422.818 9.123-1.668 9.123-1.668l6.118 3.532c-1.029 4.607 2.642 6.727 2.642 6.727-2.725 1.893-4.422-.82-4.422-.82"/><path fill="#ffac33" d="M30.56 14.12c2.488-4.309 1.218-9.7-2.837-12.041-4.055-2.341-9.359-.746-11.846 3.562l-1.589 2.753c-2.489 4.31-1.218 9.699 2.837 12.04 4.055 2.342 9.359.747 11.846-3.562l1.589-2.752Z"/><path fill="#ffcc4d" d="m28.718 10.541-1.951.828.828 1.95 1.951-.827-.828-1.951ZM27.062 6.64l-1.95.827.828 1.952 1.95-.828-.828-1.951zm-1.657-3.904-1.951.828.828 1.952 1.952-.829-.829-1.951zm-4.197 6.388.828 1.952 1.952-.829-.829-1.952-1.951.829zm.294-4.73-1.95.828.828 1.95 1.95-.829-.828-1.949zm-4.196 6.386.829 1.951 1.951-.827-.828-1.952-1.952.828zm.295-4.73-1.951.827.828 1.951L18.429 8l-.828-1.95zm-4.196 6.386.828 1.952 1.951-.828-.828-1.953-1.951.829zm2.484 5.852 1.951-.828-.829-1.949-1.95.828.828 1.949zm3.902-1.655 1.95-.828-.828-1.951-1.95.828.828 1.951zm1.656 3.902 1.952-.828-.829-1.952-1.952.828.829 1.952Zm4.197-6.387-.828-1.95-1.952.827.829 1.952 1.951-.829zm-.294 4.731 1.95-.829-.828-1.95-1.951.828.829 1.951zm6.213-7.243a9.527 9.527 0 0 1-1.002 2.484l-.187.323v-.001l-1.951.828.624 1.471-.075.131c-2.025 3.51-5.92 5.217-9.486 4.466l-.819-1.926-1.884.799c-3.28-2.122-4.567-6.318-3.262-10.128l1.006-.427-.401-.946c.055-.106.102-.212.162-.315l1.59-2.753a9.419 9.419 0 0 1 2.617-2.91l.229.538 1.951-.828-.324-.763a8.793 8.793 0 0 1 2.06-.573l.215.507 1.404-.594a7.99 7.99 0 0 1 3.342.882l-.016.007.828 1.951 1.188-.504a8.19 8.19 0 0 1 1.334 1.737l-1.693.72.828 1.951 1.667-.707c.191.7.301 1.426.316 2.167l-1.155.49.828 1.951.066-.028z"/></g></svg>