<svg xmlns="http://www.w3.org/2000/svg" enable-background="new 0 0 47.5 47.5" viewBox="0 0 47.5 47.5"><defs><clipPath id="a"><path d="M0 38h38V0H0v38Z"/></clipPath><clipPath id="b"><path d="M3.442 21.978a.998.998 0 0 1-.447-.332C1.755 20.012.381 13.53 4 10c3.556-3.468 6.822-4.304 8.778-4.495a2.15 2.15 0 0 1 .14-.007c2.458 0 18.332 10.76 19.524 13.235 1.372 2.842 1.281 8.399-1.98 10.297-.395.231-.914.338-1.633.338-5.581 0-24.581-7.089-25.387-7.39"/></clipPath><clipPath id="c"><path d="M0 38h38V0H0v38Z"/></clipPath></defs><g clip-path="url(#a)" transform="matrix(1.25 0 0 -1.25 0 47.5)"><path fill="#eee" d="M0 0a2.15 2.15 0 0 0-.14.007c-1.957.191-6.023 1.362-8.778 5.495-2 3-2.245 9.012-1.004 10.646a.991.991 0 0 0 .445.332c.807.302 19.807 7.39 25.388 7.39.719 0 1.238-.107 1.633-.337 3.261-1.899 3.352-7.456 1.98-10.299C18.332 10.761 2.458 0 0 0" transform="translate(12.918 5.498)"/></g><g clip-path="url(#b)" transform="matrix(1.25 0 0 -1.25 0 47.5)"><path fill="#ccd6dd" d="M0 0c-1-3-3-14 2-16S26-4.083 24 1.458C22 7 17 12 13 9S0 0 0 0" transform="translate(14 18)"/></g><g clip-path="url(#c)" transform="matrix(1.25 0 0 -1.25 0 47.5)"><path fill="#a0041e" d="M0 0a.995.995 0 0 1-.846.257l-29.376-4.833a1 1 0 0 1-.837-1.013c.027-1.011.019-1.746.01-2.574-.005-.46-.01-.948-.01-1.525a1 1 0 0 1 .361-.769c2.033-1.687 8.714-6.157 10.233-6.917a.999.999 0 0 1 1.057.102C-16.852-15.306-2.925-7.343-.744-6.397c.335.146.564.463.598.827.125 1.373.458 4.741.458 4.742A.999.999 0 0 1 0 0" transform="translate(33.018 30.48)"/><path fill="#dd2e44" d="M0 0c-2.02 2.295-9.627 5.574-10.917 5.63a.998.998 0 0 1-.238-.018c-10.106-2.013-16.719-7.806-19.209-9.987l-.416-.362a.999.999 0 0 1 .071-1.57c.338-.243 8.316-5.96 10.257-7.058a1.007 1.007 0 0 1 1.159.125C-15.379-9.741-2.194-2.279-.396-1.596A1 1 0 0 1 0 0" transform="translate(33.085 30.41)"/><path fill="none" stroke="#ea596e" stroke-linecap="round" stroke-linejoin="round" stroke-miterlimit="10" stroke-width="2" d="M0 0c.875-2.667 1.333-5.417 1.75-7.833" transform="translate(8.417 28.416)"/><path fill="none" stroke="#ea596e" stroke-linecap="round" stroke-linejoin="round" stroke-miterlimit="10" stroke-width="2" d="M0 0c1.042-2.833 2.167-9.333 2.25-11" transform="translate(13.959 31.834)"/><path fill="none" stroke="#ea596e" stroke-linecap="round" stroke-linejoin="round" stroke-miterlimit="10" stroke-width="2" d="M0 0c1-3 1.592-7.763 1.834-9.375" transform="translate(20 34)"/><path fill="none" stroke="#ea596e" stroke-linecap="round" stroke-linejoin="round" stroke-miterlimit="10" stroke-width="2" d="M0 0c.5-1.417.833-2.833 1.041-4.917" transform="translate(26.459 32.959)"/><path fill="#292f33" d="M0 0c-1.714 1.235-4.055 2-6.636 2-2.581 0-4.922-.765-6.635-2h-2.865v-5c0-3.859 4.262-7 9.5-7 5.239 0 9.5 3.141 9.5 7v5H0Z" transform="translate(33.136 14)"/><path fill="#292f33" d="M0 0c-5.238 0-9.5-3.141-9.5-7s4.262-7 9.5-7 9.5 3.141 9.5 7S5.238 0 0 0" transform="translate(26.5 21)"/><path fill="#e1e8ed" d="M0 0c0-2.762-3.171-5-7.083-5-3.912 0-7.084 2.238-7.084 5s3.172 5 7.084 5C-3.171 5 0 2.762 0 0" transform="translate(33.583 14)"/><path fill="none" stroke="#e1e8ed" stroke-linecap="round" stroke-linejoin="round" stroke-miterlimit="10" stroke-width="1.667" d="M0 0c0-2.762-3.171-5-7.083-5-3.912 0-7.084 2.238-7.084 5s3.172 5 7.084 5C-3.171 5 0 2.762 0 0Z" transform="translate(33.583 14)"/><path fill="#77b255" d="M0 0c0 .422 1.806.335 4.291.335C6.776.335 8.5.881 8.5.459c0-1.775-1.724-3.552-4.209-3.552C1.806-3.093 0-1.775 0 0" transform="translate(22.209 14.458)"/><path fill="none" stroke="#77b255" stroke-miterlimit="10" d="M0 0c0 .422 1.806.335 4.291.335C6.776.335 8.5.881 8.5.459c0-1.775-1.724-3.552-4.209-3.552C1.806-3.093 0-1.775 0 0Z" transform="translate(22.209 14.458)"/><path fill="#f4900c" d="M0 0s-2 1-5 0c-2.357-.786-4-2.561-4-.785C-9 .99-6.985 2.428-4.5 2.428S0 1 0 0" transform="translate(31 15)"/><path fill="none" stroke="#f4900c" stroke-linecap="round" stroke-linejoin="round" stroke-miterlimit="10" d="M0 0s-2 1-5 0c-2.357-.786-4-2.561-4-.785C-9 .99-6.985 2.428-4.5 2.428S0 1 0 0Z" transform="translate(31 15)"/></g></svg>